<mxfile host="app.diagrams.net" modified="2024-02-08T13:21:18.350Z" agent="Mozilla/5.0 (Macintosh; Intel Mac OS X 10_15_7) AppleWebKit/605.1.15 (KHTML, like Gecko) Version/15.6 Safari/605.1.15" etag="unMCeIdYnrsuDrU99i3D" version="23.1.2" type="github" pages="3">
  <diagram name="Page-1" id="BInwaGNL4pFZfoFTj9UN">
    <mxGraphModel dx="2977" dy="2109" grid="1" gridSize="10" guides="1" tooltips="1" connect="1" arrows="1" fold="1" page="1" pageScale="1" pageWidth="827" pageHeight="1169" math="0" shadow="0">
      <root>
        <mxCell id="0" />
        <mxCell id="1" parent="0" />
        <mxCell id="Ex7_GT3SORcMS4K1t9Gg-11" value="" style="edgeStyle=orthogonalEdgeStyle;rounded=0;orthogonalLoop=1;jettySize=auto;html=1;" parent="1" edge="1">
          <mxGeometry relative="1" as="geometry">
            <mxPoint x="66" y="443.9999999999998" as="sourcePoint" />
            <mxPoint x="156" y="443.9999999999998" as="targetPoint" />
          </mxGeometry>
        </mxCell>
        <mxCell id="Ex7_GT3SORcMS4K1t9Gg-1" value="&lt;font style=&quot;font-size: 20px;&quot;&gt;CUCKOO FILTER&lt;/font&gt;" style="rounded=0;whiteSpace=wrap;html=1;fillColor=#fff2cc;strokeColor=#d6b656;" parent="1" vertex="1">
          <mxGeometry x="-94" y="360" width="160" height="200" as="geometry" />
        </mxCell>
        <mxCell id="Ex7_GT3SORcMS4K1t9Gg-2" value="" style="shape=actor;whiteSpace=wrap;html=1;fillColor=#d5e8d4;strokeColor=#82b366;" parent="1" vertex="1">
          <mxGeometry x="-244" y="360" width="40" height="60" as="geometry" />
        </mxCell>
        <mxCell id="Ex7_GT3SORcMS4K1t9Gg-3" value="" style="shape=actor;whiteSpace=wrap;html=1;fillColor=#e1d5e7;strokeColor=#9673a6;" parent="1" vertex="1">
          <mxGeometry x="-244" y="430" width="40" height="60" as="geometry" />
        </mxCell>
        <mxCell id="Ex7_GT3SORcMS4K1t9Gg-8" style="edgeStyle=orthogonalEdgeStyle;rounded=0;orthogonalLoop=1;jettySize=auto;html=1;exitX=0.9;exitY=0.5;exitDx=0;exitDy=0;exitPerimeter=0;entryX=0;entryY=0.75;entryDx=0;entryDy=0;" parent="1" source="Ex7_GT3SORcMS4K1t9Gg-4" target="Ex7_GT3SORcMS4K1t9Gg-1" edge="1">
          <mxGeometry relative="1" as="geometry" />
        </mxCell>
        <mxCell id="Ex7_GT3SORcMS4K1t9Gg-41" value="&lt;font style=&quot;font-size: 20px;&quot;&gt;NO GAS&lt;/font&gt;" style="edgeLabel;html=1;align=center;verticalAlign=middle;resizable=0;points=[];" parent="Ex7_GT3SORcMS4K1t9Gg-8" vertex="1" connectable="0">
          <mxGeometry x="0.0149" relative="1" as="geometry">
            <mxPoint as="offset" />
          </mxGeometry>
        </mxCell>
        <mxCell id="Ex7_GT3SORcMS4K1t9Gg-4" value="" style="shape=actor;whiteSpace=wrap;html=1;fillColor=#bac8d3;strokeColor=#23445d;" parent="1" vertex="1">
          <mxGeometry x="-244" y="500" width="40" height="60" as="geometry" />
        </mxCell>
        <mxCell id="Ex7_GT3SORcMS4K1t9Gg-6" style="edgeStyle=orthogonalEdgeStyle;rounded=0;orthogonalLoop=1;jettySize=auto;html=1;exitX=0.9;exitY=0.5;exitDx=0;exitDy=0;exitPerimeter=0;entryX=0.013;entryY=0.355;entryDx=0;entryDy=0;entryPerimeter=0;" parent="1" source="Ex7_GT3SORcMS4K1t9Gg-2" target="Ex7_GT3SORcMS4K1t9Gg-1" edge="1">
          <mxGeometry relative="1" as="geometry" />
        </mxCell>
        <mxCell id="Ex7_GT3SORcMS4K1t9Gg-39" value="&lt;font style=&quot;font-size: 20px;&quot;&gt;NO GAS&lt;/font&gt;" style="edgeLabel;html=1;align=center;verticalAlign=middle;resizable=0;points=[];" parent="Ex7_GT3SORcMS4K1t9Gg-6" vertex="1" connectable="0">
          <mxGeometry x="-0.4434" y="-1" relative="1" as="geometry">
            <mxPoint x="-1" y="19" as="offset" />
          </mxGeometry>
        </mxCell>
        <mxCell id="Ex7_GT3SORcMS4K1t9Gg-7" style="edgeStyle=orthogonalEdgeStyle;rounded=0;orthogonalLoop=1;jettySize=auto;html=1;exitX=1;exitY=0.75;exitDx=0;exitDy=0;entryX=-0.017;entryY=0.583;entryDx=0;entryDy=0;entryPerimeter=0;" parent="1" edge="1">
          <mxGeometry relative="1" as="geometry">
            <mxPoint x="-204" y="469" as="sourcePoint" />
            <mxPoint x="-96.71999999999991" y="470.5999999999999" as="targetPoint" />
            <Array as="points">
              <mxPoint x="-204" y="471" />
              <mxPoint x="-149" y="471" />
            </Array>
          </mxGeometry>
        </mxCell>
        <mxCell id="Ex7_GT3SORcMS4K1t9Gg-40" value="&lt;font style=&quot;font-size: 20px;&quot;&gt;NO GAS&lt;/font&gt;" style="edgeLabel;html=1;align=center;verticalAlign=middle;resizable=0;points=[];" parent="Ex7_GT3SORcMS4K1t9Gg-7" vertex="1" connectable="0">
          <mxGeometry x="-0.1398" y="2" relative="1" as="geometry">
            <mxPoint as="offset" />
          </mxGeometry>
        </mxCell>
        <mxCell id="Ex7_GT3SORcMS4K1t9Gg-13" style="edgeStyle=orthogonalEdgeStyle;rounded=0;orthogonalLoop=1;jettySize=auto;html=1;exitX=1;exitY=0.5;exitDx=0;exitDy=0;" parent="1" source="Ex7_GT3SORcMS4K1t9Gg-9" edge="1">
          <mxGeometry relative="1" as="geometry">
            <mxPoint x="505.9999999999998" y="460.0000000000001" as="targetPoint" />
          </mxGeometry>
        </mxCell>
        <mxCell id="Ex7_GT3SORcMS4K1t9Gg-46" style="edgeStyle=orthogonalEdgeStyle;rounded=0;orthogonalLoop=1;jettySize=auto;html=1;exitX=0;exitY=0.75;exitDx=0;exitDy=0;entryX=1;entryY=0.75;entryDx=0;entryDy=0;" parent="1" edge="1">
          <mxGeometry relative="1" as="geometry">
            <mxPoint x="156" y="481" as="sourcePoint" />
            <mxPoint x="66" y="481" as="targetPoint" />
          </mxGeometry>
        </mxCell>
        <mxCell id="Ex7_GT3SORcMS4K1t9Gg-9" value="&lt;font style=&quot;font-size: 20px;&quot;&gt;MULTI-SIG&amp;nbsp;&lt;br&gt;CONTRACT&lt;/font&gt;" style="rounded=0;whiteSpace=wrap;html=1;fillColor=#dae8fc;strokeColor=#6c8ebf;" parent="1" vertex="1">
          <mxGeometry x="156" y="360" width="160" height="200" as="geometry" />
        </mxCell>
        <mxCell id="Ex7_GT3SORcMS4K1t9Gg-14" value="" style="endArrow=classic;html=1;rounded=0;strokeColor=#6666FF;" parent="1" edge="1">
          <mxGeometry relative="1" as="geometry">
            <mxPoint x="66" y="640" as="sourcePoint" />
            <mxPoint x="526" y="640" as="targetPoint" />
          </mxGeometry>
        </mxCell>
        <mxCell id="Ex7_GT3SORcMS4K1t9Gg-15" value="&lt;font color=&quot;#6666ff&quot; style=&quot;font-size: 24px;&quot;&gt;ON CHAIN&lt;/font&gt;" style="edgeLabel;resizable=0;html=1;align=center;verticalAlign=middle;" parent="Ex7_GT3SORcMS4K1t9Gg-14" connectable="0" vertex="1">
          <mxGeometry relative="1" as="geometry" />
        </mxCell>
        <mxCell id="Ex7_GT3SORcMS4K1t9Gg-16" value="Source" style="edgeLabel;resizable=0;html=1;align=left;verticalAlign=bottom;" parent="Ex7_GT3SORcMS4K1t9Gg-14" connectable="0" vertex="1">
          <mxGeometry x="-1" relative="1" as="geometry" />
        </mxCell>
        <mxCell id="Ex7_GT3SORcMS4K1t9Gg-17" value="Target" style="edgeLabel;resizable=0;html=1;align=right;verticalAlign=bottom;" parent="Ex7_GT3SORcMS4K1t9Gg-14" connectable="0" vertex="1">
          <mxGeometry x="1" relative="1" as="geometry" />
        </mxCell>
        <mxCell id="Ex7_GT3SORcMS4K1t9Gg-34" style="edgeStyle=orthogonalEdgeStyle;rounded=0;orthogonalLoop=1;jettySize=auto;html=1;exitX=1;exitY=0.5;exitDx=0;exitDy=0;" parent="1" source="Ex7_GT3SORcMS4K1t9Gg-18" edge="1">
          <mxGeometry relative="1" as="geometry">
            <mxPoint x="530" y="139" as="targetPoint" />
          </mxGeometry>
        </mxCell>
        <mxCell id="Ex7_GT3SORcMS4K1t9Gg-18" value="&lt;font style=&quot;font-size: 20px;&quot;&gt;MULTI-SIG&amp;nbsp;&lt;br style=&quot;border-color: var(--border-color);&quot;&gt;CONTRACT&lt;/font&gt;" style="rounded=0;whiteSpace=wrap;html=1;fillColor=#dae8fc;strokeColor=#6c8ebf;" parent="1" vertex="1">
          <mxGeometry x="160" y="40" width="160" height="200" as="geometry" />
        </mxCell>
        <mxCell id="Ex7_GT3SORcMS4K1t9Gg-19" value="" style="shape=actor;whiteSpace=wrap;html=1;fillColor=#d5e8d4;strokeColor=#82b366;" parent="1" vertex="1">
          <mxGeometry x="10" y="40" width="40" height="60" as="geometry" />
        </mxCell>
        <mxCell id="Ex7_GT3SORcMS4K1t9Gg-20" value="" style="shape=actor;whiteSpace=wrap;html=1;fillColor=#e1d5e7;strokeColor=#9673a6;" parent="1" vertex="1">
          <mxGeometry x="10" y="110" width="40" height="60" as="geometry" />
        </mxCell>
        <mxCell id="Ex7_GT3SORcMS4K1t9Gg-21" style="edgeStyle=orthogonalEdgeStyle;rounded=0;orthogonalLoop=1;jettySize=auto;html=1;exitX=0.9;exitY=0.5;exitDx=0;exitDy=0;exitPerimeter=0;entryX=0;entryY=0.75;entryDx=0;entryDy=0;" parent="1" source="Ex7_GT3SORcMS4K1t9Gg-22" target="Ex7_GT3SORcMS4K1t9Gg-18" edge="1">
          <mxGeometry relative="1" as="geometry" />
        </mxCell>
        <mxCell id="Ex7_GT3SORcMS4K1t9Gg-37" value="&lt;font style=&quot;font-size: 20px;&quot;&gt;GAS&lt;/font&gt;" style="edgeLabel;html=1;align=center;verticalAlign=middle;resizable=0;points=[];" parent="Ex7_GT3SORcMS4K1t9Gg-21" vertex="1" connectable="0">
          <mxGeometry x="0.1002" y="-2" relative="1" as="geometry">
            <mxPoint y="1" as="offset" />
          </mxGeometry>
        </mxCell>
        <mxCell id="Ex7_GT3SORcMS4K1t9Gg-22" value="" style="shape=actor;whiteSpace=wrap;html=1;fillColor=#bac8d3;strokeColor=#23445d;" parent="1" vertex="1">
          <mxGeometry x="10" y="180" width="40" height="60" as="geometry" />
        </mxCell>
        <mxCell id="Ex7_GT3SORcMS4K1t9Gg-23" style="edgeStyle=orthogonalEdgeStyle;rounded=0;orthogonalLoop=1;jettySize=auto;html=1;exitX=0.9;exitY=0.5;exitDx=0;exitDy=0;exitPerimeter=0;entryX=0.013;entryY=0.355;entryDx=0;entryDy=0;entryPerimeter=0;" parent="1" source="Ex7_GT3SORcMS4K1t9Gg-19" target="Ex7_GT3SORcMS4K1t9Gg-18" edge="1">
          <mxGeometry relative="1" as="geometry" />
        </mxCell>
        <mxCell id="Ex7_GT3SORcMS4K1t9Gg-35" value="&lt;font style=&quot;font-size: 20px;&quot;&gt;GAS&lt;/font&gt;" style="edgeLabel;html=1;align=center;verticalAlign=middle;resizable=0;points=[];" parent="Ex7_GT3SORcMS4K1t9Gg-23" vertex="1" connectable="0">
          <mxGeometry x="-0.3161" y="-1" relative="1" as="geometry">
            <mxPoint x="-1" as="offset" />
          </mxGeometry>
        </mxCell>
        <mxCell id="Ex7_GT3SORcMS4K1t9Gg-24" style="edgeStyle=orthogonalEdgeStyle;rounded=0;orthogonalLoop=1;jettySize=auto;html=1;exitX=1;exitY=0.75;exitDx=0;exitDy=0;entryX=-0.017;entryY=0.583;entryDx=0;entryDy=0;entryPerimeter=0;" parent="1" edge="1">
          <mxGeometry relative="1" as="geometry">
            <mxPoint x="50" y="149" as="sourcePoint" />
            <mxPoint x="157.2800000000001" y="150.5999999999999" as="targetPoint" />
            <Array as="points">
              <mxPoint x="50" y="151" />
              <mxPoint x="105" y="151" />
            </Array>
          </mxGeometry>
        </mxCell>
        <mxCell id="Ex7_GT3SORcMS4K1t9Gg-36" value="&lt;font style=&quot;font-size: 20px;&quot;&gt;GAS&lt;/font&gt;" style="edgeLabel;html=1;align=center;verticalAlign=middle;resizable=0;points=[];" parent="Ex7_GT3SORcMS4K1t9Gg-24" vertex="1" connectable="0">
          <mxGeometry x="-0.0013" y="1" relative="1" as="geometry">
            <mxPoint as="offset" />
          </mxGeometry>
        </mxCell>
        <mxCell id="Ex7_GT3SORcMS4K1t9Gg-25" value="" style="endArrow=classic;html=1;rounded=0;strokeColor=#9933FF;" parent="1" edge="1">
          <mxGeometry relative="1" as="geometry">
            <mxPoint x="-570" y="640" as="sourcePoint" />
            <mxPoint x="76" y="640" as="targetPoint" />
          </mxGeometry>
        </mxCell>
        <mxCell id="Ex7_GT3SORcMS4K1t9Gg-26" value="&lt;font color=&quot;#9933ff&quot; style=&quot;font-size: 24px;&quot;&gt;OFF CHAIN&lt;/font&gt;" style="edgeLabel;resizable=0;html=1;align=center;verticalAlign=middle;" parent="Ex7_GT3SORcMS4K1t9Gg-25" connectable="0" vertex="1">
          <mxGeometry relative="1" as="geometry" />
        </mxCell>
        <mxCell id="Ex7_GT3SORcMS4K1t9Gg-27" value="Source" style="edgeLabel;resizable=0;html=1;align=left;verticalAlign=bottom;" parent="Ex7_GT3SORcMS4K1t9Gg-25" connectable="0" vertex="1">
          <mxGeometry x="-1" relative="1" as="geometry" />
        </mxCell>
        <mxCell id="Ex7_GT3SORcMS4K1t9Gg-28" value="Target" style="edgeLabel;resizable=0;html=1;align=right;verticalAlign=bottom;" parent="Ex7_GT3SORcMS4K1t9Gg-25" connectable="0" vertex="1">
          <mxGeometry x="1" relative="1" as="geometry" />
        </mxCell>
        <mxCell id="Ex7_GT3SORcMS4K1t9Gg-30" value="" style="endArrow=classic;html=1;rounded=0;strokeColor=#6666FF;" parent="1" edge="1">
          <mxGeometry relative="1" as="geometry">
            <mxPoint y="300" as="sourcePoint" />
            <mxPoint x="530" y="300" as="targetPoint" />
          </mxGeometry>
        </mxCell>
        <mxCell id="Ex7_GT3SORcMS4K1t9Gg-31" value="&lt;font color=&quot;#6666ff&quot; style=&quot;font-size: 24px;&quot;&gt;ON CHAIN&lt;/font&gt;" style="edgeLabel;resizable=0;html=1;align=center;verticalAlign=middle;" parent="Ex7_GT3SORcMS4K1t9Gg-30" connectable="0" vertex="1">
          <mxGeometry relative="1" as="geometry" />
        </mxCell>
        <mxCell id="Ex7_GT3SORcMS4K1t9Gg-32" value="Source" style="edgeLabel;resizable=0;html=1;align=left;verticalAlign=bottom;" parent="Ex7_GT3SORcMS4K1t9Gg-30" connectable="0" vertex="1">
          <mxGeometry x="-1" relative="1" as="geometry" />
        </mxCell>
        <mxCell id="Ex7_GT3SORcMS4K1t9Gg-33" value="Target" style="edgeLabel;resizable=0;html=1;align=right;verticalAlign=bottom;" parent="Ex7_GT3SORcMS4K1t9Gg-30" connectable="0" vertex="1">
          <mxGeometry x="1" relative="1" as="geometry" />
        </mxCell>
        <mxCell id="Ex7_GT3SORcMS4K1t9Gg-38" value="MULTI-SIG" style="text;html=1;strokeColor=none;fillColor=none;align=center;verticalAlign=middle;whiteSpace=wrap;rounded=0;" parent="1" vertex="1">
          <mxGeometry x="190" y="-210" width="160" height="30" as="geometry" />
        </mxCell>
        <mxCell id="Ex7_GT3SORcMS4K1t9Gg-42" value="&lt;font style=&quot;font-size: 20px;&quot;&gt;OFF-CHAIN&lt;br&gt;KEY&lt;br&gt;GENERATION&lt;br&gt;&lt;/font&gt;" style="rounded=0;whiteSpace=wrap;html=1;fillColor=#ffe6cc;strokeColor=#d79b00;" parent="1" vertex="1">
          <mxGeometry x="-580" y="360" width="160" height="200" as="geometry" />
        </mxCell>
        <mxCell id="Ex7_GT3SORcMS4K1t9Gg-43" style="edgeStyle=orthogonalEdgeStyle;rounded=0;orthogonalLoop=1;jettySize=auto;html=1;exitX=1;exitY=0.25;exitDx=0;exitDy=0;entryX=-0.025;entryY=0.517;entryDx=0;entryDy=0;entryPerimeter=0;" parent="1" source="Ex7_GT3SORcMS4K1t9Gg-42" target="Ex7_GT3SORcMS4K1t9Gg-2" edge="1">
          <mxGeometry relative="1" as="geometry" />
        </mxCell>
        <mxCell id="Ex7_GT3SORcMS4K1t9Gg-44" style="edgeStyle=orthogonalEdgeStyle;rounded=0;orthogonalLoop=1;jettySize=auto;html=1;exitX=1;exitY=0.5;exitDx=0;exitDy=0;entryX=0.1;entryY=0.5;entryDx=0;entryDy=0;entryPerimeter=0;" parent="1" edge="1">
          <mxGeometry relative="1" as="geometry">
            <mxPoint x="-420" y="470.9999999999998" as="sourcePoint" />
            <mxPoint x="-240" y="470.9999999999998" as="targetPoint" />
          </mxGeometry>
        </mxCell>
        <mxCell id="Ex7_GT3SORcMS4K1t9Gg-45" style="edgeStyle=orthogonalEdgeStyle;rounded=0;orthogonalLoop=1;jettySize=auto;html=1;exitX=1;exitY=0.75;exitDx=0;exitDy=0;entryX=0.1;entryY=0.5;entryDx=0;entryDy=0;entryPerimeter=0;" parent="1" source="Ex7_GT3SORcMS4K1t9Gg-42" target="Ex7_GT3SORcMS4K1t9Gg-4" edge="1">
          <mxGeometry relative="1" as="geometry" />
        </mxCell>
        <mxCell id="Ex7_GT3SORcMS4K1t9Gg-48" value="" style="edgeStyle=orthogonalEdgeStyle;rounded=0;orthogonalLoop=1;jettySize=auto;html=1;" parent="1" edge="1">
          <mxGeometry relative="1" as="geometry">
            <mxPoint x="66" y="983.9999999999998" as="sourcePoint" />
            <mxPoint x="156" y="983.9999999999998" as="targetPoint" />
          </mxGeometry>
        </mxCell>
        <mxCell id="Ex7_GT3SORcMS4K1t9Gg-49" value="&lt;font style=&quot;font-size: 20px;&quot;&gt;CUCKOO FILTER&lt;/font&gt;" style="rounded=0;whiteSpace=wrap;html=1;fillColor=#fff2cc;strokeColor=#d6b656;" parent="1" vertex="1">
          <mxGeometry x="-94" y="900" width="160" height="200" as="geometry" />
        </mxCell>
        <mxCell id="Ex7_GT3SORcMS4K1t9Gg-50" value="" style="shape=actor;whiteSpace=wrap;html=1;fillColor=#d5e8d4;strokeColor=#82b366;" parent="1" vertex="1">
          <mxGeometry x="-244" y="900" width="40" height="60" as="geometry" />
        </mxCell>
        <mxCell id="Ex7_GT3SORcMS4K1t9Gg-51" value="" style="shape=actor;whiteSpace=wrap;html=1;fillColor=#e1d5e7;strokeColor=#9673a6;" parent="1" vertex="1">
          <mxGeometry x="-244" y="970" width="40" height="60" as="geometry" />
        </mxCell>
        <mxCell id="Ex7_GT3SORcMS4K1t9Gg-52" style="edgeStyle=orthogonalEdgeStyle;rounded=0;orthogonalLoop=1;jettySize=auto;html=1;exitX=0.9;exitY=0.5;exitDx=0;exitDy=0;exitPerimeter=0;entryX=0;entryY=0.75;entryDx=0;entryDy=0;" parent="1" source="Ex7_GT3SORcMS4K1t9Gg-54" target="Ex7_GT3SORcMS4K1t9Gg-49" edge="1">
          <mxGeometry relative="1" as="geometry" />
        </mxCell>
        <mxCell id="Ex7_GT3SORcMS4K1t9Gg-53" value="&lt;font style=&quot;font-size: 20px;&quot;&gt;NO GAS&lt;/font&gt;" style="edgeLabel;html=1;align=center;verticalAlign=middle;resizable=0;points=[];" parent="Ex7_GT3SORcMS4K1t9Gg-52" vertex="1" connectable="0">
          <mxGeometry x="0.0149" relative="1" as="geometry">
            <mxPoint as="offset" />
          </mxGeometry>
        </mxCell>
        <mxCell id="Ex7_GT3SORcMS4K1t9Gg-54" value="" style="shape=actor;whiteSpace=wrap;html=1;fillColor=#bac8d3;strokeColor=#23445d;" parent="1" vertex="1">
          <mxGeometry x="-244" y="1040" width="40" height="60" as="geometry" />
        </mxCell>
        <mxCell id="Ex7_GT3SORcMS4K1t9Gg-55" style="edgeStyle=orthogonalEdgeStyle;rounded=0;orthogonalLoop=1;jettySize=auto;html=1;exitX=0.9;exitY=0.5;exitDx=0;exitDy=0;exitPerimeter=0;entryX=0.013;entryY=0.355;entryDx=0;entryDy=0;entryPerimeter=0;" parent="1" source="Ex7_GT3SORcMS4K1t9Gg-50" target="Ex7_GT3SORcMS4K1t9Gg-49" edge="1">
          <mxGeometry relative="1" as="geometry" />
        </mxCell>
        <mxCell id="Ex7_GT3SORcMS4K1t9Gg-56" value="&lt;font style=&quot;font-size: 20px;&quot;&gt;NO GAS&lt;/font&gt;" style="edgeLabel;html=1;align=center;verticalAlign=middle;resizable=0;points=[];" parent="Ex7_GT3SORcMS4K1t9Gg-55" vertex="1" connectable="0">
          <mxGeometry x="-0.4434" y="-1" relative="1" as="geometry">
            <mxPoint x="-1" y="19" as="offset" />
          </mxGeometry>
        </mxCell>
        <mxCell id="Ex7_GT3SORcMS4K1t9Gg-57" style="edgeStyle=orthogonalEdgeStyle;rounded=0;orthogonalLoop=1;jettySize=auto;html=1;exitX=1;exitY=0.75;exitDx=0;exitDy=0;entryX=-0.017;entryY=0.583;entryDx=0;entryDy=0;entryPerimeter=0;" parent="1" edge="1">
          <mxGeometry relative="1" as="geometry">
            <mxPoint x="-204" y="1009" as="sourcePoint" />
            <mxPoint x="-96.71999999999991" y="1010.5999999999999" as="targetPoint" />
            <Array as="points">
              <mxPoint x="-204" y="1011" />
              <mxPoint x="-149" y="1011" />
            </Array>
          </mxGeometry>
        </mxCell>
        <mxCell id="Ex7_GT3SORcMS4K1t9Gg-58" value="&lt;font style=&quot;font-size: 20px;&quot;&gt;NO GAS&lt;/font&gt;" style="edgeLabel;html=1;align=center;verticalAlign=middle;resizable=0;points=[];" parent="Ex7_GT3SORcMS4K1t9Gg-57" vertex="1" connectable="0">
          <mxGeometry x="-0.1398" y="2" relative="1" as="geometry">
            <mxPoint as="offset" />
          </mxGeometry>
        </mxCell>
        <mxCell id="Ex7_GT3SORcMS4K1t9Gg-59" style="edgeStyle=orthogonalEdgeStyle;rounded=0;orthogonalLoop=1;jettySize=auto;html=1;exitX=1;exitY=0.5;exitDx=0;exitDy=0;" parent="1" source="Ex7_GT3SORcMS4K1t9Gg-61" edge="1">
          <mxGeometry relative="1" as="geometry">
            <mxPoint x="505.9999999999998" y="1000.0000000000001" as="targetPoint" />
          </mxGeometry>
        </mxCell>
        <mxCell id="Ex7_GT3SORcMS4K1t9Gg-60" style="edgeStyle=orthogonalEdgeStyle;rounded=0;orthogonalLoop=1;jettySize=auto;html=1;exitX=0;exitY=0.75;exitDx=0;exitDy=0;entryX=1;entryY=0.75;entryDx=0;entryDy=0;" parent="1" edge="1">
          <mxGeometry relative="1" as="geometry">
            <mxPoint x="156" y="1021" as="sourcePoint" />
            <mxPoint x="66" y="1021" as="targetPoint" />
          </mxGeometry>
        </mxCell>
        <mxCell id="Ex7_GT3SORcMS4K1t9Gg-61" value="&lt;font style=&quot;font-size: 20px;&quot;&gt;MULTI-SIG&amp;nbsp;&lt;br&gt;CONTRACT&lt;/font&gt;" style="rounded=0;whiteSpace=wrap;html=1;fillColor=#dae8fc;strokeColor=#6c8ebf;" parent="1" vertex="1">
          <mxGeometry x="156" y="900" width="160" height="200" as="geometry" />
        </mxCell>
        <mxCell id="Ex7_GT3SORcMS4K1t9Gg-62" value="" style="endArrow=classic;html=1;rounded=0;strokeColor=#6666FF;" parent="1" edge="1">
          <mxGeometry relative="1" as="geometry">
            <mxPoint x="66" y="1180" as="sourcePoint" />
            <mxPoint x="526" y="1180" as="targetPoint" />
          </mxGeometry>
        </mxCell>
        <mxCell id="Ex7_GT3SORcMS4K1t9Gg-63" value="&lt;font color=&quot;#6666ff&quot; style=&quot;font-size: 24px;&quot;&gt;ON CHAIN&lt;/font&gt;" style="edgeLabel;resizable=0;html=1;align=center;verticalAlign=middle;" parent="Ex7_GT3SORcMS4K1t9Gg-62" connectable="0" vertex="1">
          <mxGeometry relative="1" as="geometry" />
        </mxCell>
        <mxCell id="Ex7_GT3SORcMS4K1t9Gg-64" value="Source" style="edgeLabel;resizable=0;html=1;align=left;verticalAlign=bottom;" parent="Ex7_GT3SORcMS4K1t9Gg-62" connectable="0" vertex="1">
          <mxGeometry x="-1" relative="1" as="geometry" />
        </mxCell>
        <mxCell id="Ex7_GT3SORcMS4K1t9Gg-65" value="Target" style="edgeLabel;resizable=0;html=1;align=right;verticalAlign=bottom;" parent="Ex7_GT3SORcMS4K1t9Gg-62" connectable="0" vertex="1">
          <mxGeometry x="1" relative="1" as="geometry" />
        </mxCell>
        <mxCell id="Ex7_GT3SORcMS4K1t9Gg-66" value="" style="endArrow=classic;html=1;rounded=0;strokeColor=#9933FF;" parent="1" edge="1">
          <mxGeometry relative="1" as="geometry">
            <mxPoint x="-570" y="1180" as="sourcePoint" />
            <mxPoint x="76" y="1180" as="targetPoint" />
          </mxGeometry>
        </mxCell>
        <mxCell id="Ex7_GT3SORcMS4K1t9Gg-67" value="&lt;font color=&quot;#9933ff&quot; style=&quot;font-size: 24px;&quot;&gt;OFF CHAIN&lt;/font&gt;" style="edgeLabel;resizable=0;html=1;align=center;verticalAlign=middle;" parent="Ex7_GT3SORcMS4K1t9Gg-66" connectable="0" vertex="1">
          <mxGeometry relative="1" as="geometry" />
        </mxCell>
        <mxCell id="Ex7_GT3SORcMS4K1t9Gg-68" value="Source" style="edgeLabel;resizable=0;html=1;align=left;verticalAlign=bottom;" parent="Ex7_GT3SORcMS4K1t9Gg-66" connectable="0" vertex="1">
          <mxGeometry x="-1" relative="1" as="geometry" />
        </mxCell>
        <mxCell id="Ex7_GT3SORcMS4K1t9Gg-69" value="Target" style="edgeLabel;resizable=0;html=1;align=right;verticalAlign=bottom;" parent="Ex7_GT3SORcMS4K1t9Gg-66" connectable="0" vertex="1">
          <mxGeometry x="1" relative="1" as="geometry" />
        </mxCell>
        <mxCell id="Ex7_GT3SORcMS4K1t9Gg-70" value="&lt;font style=&quot;font-size: 20px;&quot;&gt;OFF-CHAIN&lt;br&gt;KEY&lt;br&gt;GENERATION&lt;br&gt;&lt;/font&gt;" style="rounded=0;whiteSpace=wrap;html=1;fillColor=#ffe6cc;strokeColor=#d79b00;" parent="1" vertex="1">
          <mxGeometry x="-580" y="900" width="160" height="200" as="geometry" />
        </mxCell>
        <mxCell id="Ex7_GT3SORcMS4K1t9Gg-71" style="edgeStyle=orthogonalEdgeStyle;rounded=0;orthogonalLoop=1;jettySize=auto;html=1;exitX=1;exitY=0.25;exitDx=0;exitDy=0;entryX=-0.025;entryY=0.517;entryDx=0;entryDy=0;entryPerimeter=0;" parent="1" source="Ex7_GT3SORcMS4K1t9Gg-70" target="Ex7_GT3SORcMS4K1t9Gg-50" edge="1">
          <mxGeometry relative="1" as="geometry" />
        </mxCell>
        <mxCell id="Ex7_GT3SORcMS4K1t9Gg-72" style="edgeStyle=orthogonalEdgeStyle;rounded=0;orthogonalLoop=1;jettySize=auto;html=1;exitX=1;exitY=0.5;exitDx=0;exitDy=0;entryX=0.1;entryY=0.5;entryDx=0;entryDy=0;entryPerimeter=0;" parent="1" edge="1">
          <mxGeometry relative="1" as="geometry">
            <mxPoint x="-420" y="1010.9999999999998" as="sourcePoint" />
            <mxPoint x="-240" y="1010.9999999999998" as="targetPoint" />
          </mxGeometry>
        </mxCell>
        <mxCell id="Ex7_GT3SORcMS4K1t9Gg-73" style="edgeStyle=orthogonalEdgeStyle;rounded=0;orthogonalLoop=1;jettySize=auto;html=1;exitX=1;exitY=0.75;exitDx=0;exitDy=0;entryX=0.1;entryY=0.5;entryDx=0;entryDy=0;entryPerimeter=0;" parent="1" source="Ex7_GT3SORcMS4K1t9Gg-70" target="Ex7_GT3SORcMS4K1t9Gg-54" edge="1">
          <mxGeometry relative="1" as="geometry" />
        </mxCell>
      </root>
    </mxGraphModel>
  </diagram>
  <diagram id="RDgt8AdDhkmR_zKjsQhh" name="Page-2">
    <mxGraphModel dx="724" dy="389" grid="1" gridSize="10" guides="1" tooltips="1" connect="1" arrows="1" fold="1" page="1" pageScale="1" pageWidth="827" pageHeight="1169" math="0" shadow="0">
      <root>
        <mxCell id="0" />
        <mxCell id="1" parent="0" />
        <mxCell id="pH_hnQ0hc6p1UYj_0MdR-8" value="" style="rounded=1;whiteSpace=wrap;html=1;strokeColor=#994C00;" vertex="1" parent="1">
          <mxGeometry x="600" y="600" width="130" height="130" as="geometry" />
        </mxCell>
        <mxCell id="pH_hnQ0hc6p1UYj_0MdR-9" value="" style="rounded=1;whiteSpace=wrap;html=1;strokeColor=#009900;strokeWidth=1;" vertex="1" parent="1">
          <mxGeometry x="270" y="600" width="210" height="130" as="geometry" />
        </mxCell>
        <mxCell id="pH_hnQ0hc6p1UYj_0MdR-11" value="" style="rounded=1;whiteSpace=wrap;html=1;strokeColor=#009900;strokeWidth=1;" vertex="1" parent="1">
          <mxGeometry x="450" y="600" width="120" height="70" as="geometry" />
        </mxCell>
        <mxCell id="pH_hnQ0hc6p1UYj_0MdR-12" value="" style="rounded=1;whiteSpace=wrap;html=1;strokeWidth=1;strokeColor=#009900;" vertex="1" parent="1">
          <mxGeometry x="450" y="670" width="120" height="60" as="geometry" />
        </mxCell>
        <mxCell id="pH_hnQ0hc6p1UYj_0MdR-27" value="&lt;span style=&quot;font-size: 13px; font-family: Tahoma;&quot;&gt;SIGNING&amp;nbsp;&lt;/span&gt;&lt;span style=&quot;font-size: 13px; font-family: Tahoma;&quot;&gt;ALGORITHM&lt;/span&gt;&lt;span style=&quot;font-size: 13px; font-family: Tahoma;&quot;&gt;&lt;br&gt;&lt;/span&gt;" style="text;html=1;strokeColor=none;fillColor=none;align=center;verticalAlign=middle;whiteSpace=wrap;rounded=0;fontFamily=Verdana;fontStyle=1;labelBorderColor=#82B366;fontColor=#82B366;labelBackgroundColor=default;" vertex="1" parent="1">
          <mxGeometry x="466.1" y="578" width="100" height="30" as="geometry" />
        </mxCell>
        <mxCell id="pH_hnQ0hc6p1UYj_0MdR-32" value="" style="sketch=0;aspect=fixed;pointerEvents=1;shadow=0;dashed=0;html=1;strokeColor=#001DBC;labelPosition=center;verticalLabelPosition=bottom;verticalAlign=top;align=center;fillColor=#0050EF;shape=mxgraph.mscae.enterprise.key_permissions;fontColor=#ffffff;" vertex="1" parent="1">
          <mxGeometry x="380.9" y="631.54" width="12.2" height="23.46" as="geometry" />
        </mxCell>
        <mxCell id="pH_hnQ0hc6p1UYj_0MdR-33" value="&lt;font size=&quot;2&quot; face=&quot;Tahoma&quot;&gt;STORAGE&lt;/font&gt;" style="text;html=1;strokeColor=none;fillColor=none;align=center;verticalAlign=middle;whiteSpace=wrap;rounded=0;fontFamily=Verdana;labelBorderColor=default;fontStyle=1;fontColor=#0050EF;" vertex="1" parent="1">
          <mxGeometry x="357" y="698.46" width="60" height="30" as="geometry" />
        </mxCell>
        <mxCell id="pH_hnQ0hc6p1UYj_0MdR-36" value="" style="sketch=0;aspect=fixed;pointerEvents=1;shadow=0;dashed=0;html=1;strokeColor=#82B366;labelPosition=center;verticalLabelPosition=bottom;verticalAlign=top;align=center;fillColor=#d5e8d4;shape=mxgraph.mscae.enterprise.key_permissions;" vertex="1" parent="1">
          <mxGeometry x="429.99999999999994" y="631.54" width="12.2" height="23.46" as="geometry" />
        </mxCell>
        <mxCell id="pH_hnQ0hc6p1UYj_0MdR-40" value="" style="sketch=0;pointerEvents=1;shadow=0;dashed=0;html=1;strokeColor=#82b366;fillColor=#d5e8d4;labelPosition=center;verticalLabelPosition=bottom;verticalAlign=top;outlineConnect=0;align=center;shape=mxgraph.office.security.key_permissions;" vertex="1" parent="1">
          <mxGeometry x="430" y="678.46" width="10" height="20" as="geometry" />
        </mxCell>
        <mxCell id="pH_hnQ0hc6p1UYj_0MdR-86" style="edgeStyle=orthogonalEdgeStyle;rounded=0;orthogonalLoop=1;jettySize=auto;html=1;exitX=0.5;exitY=1;exitDx=0;exitDy=0;entryX=0.5;entryY=0;entryDx=0;entryDy=0;" edge="1" parent="1" source="pH_hnQ0hc6p1UYj_0MdR-50" target="pH_hnQ0hc6p1UYj_0MdR-58">
          <mxGeometry relative="1" as="geometry" />
        </mxCell>
        <mxCell id="pH_hnQ0hc6p1UYj_0MdR-50" value="" style="rounded=0;whiteSpace=wrap;html=1;" vertex="1" parent="1">
          <mxGeometry x="460" y="608" width="100" height="22" as="geometry" />
        </mxCell>
        <mxCell id="pH_hnQ0hc6p1UYj_0MdR-53" value="" style="rounded=0;whiteSpace=wrap;html=1;" vertex="1" parent="1">
          <mxGeometry x="275" y="646.73" width="30" height="45" as="geometry" />
        </mxCell>
        <mxCell id="pH_hnQ0hc6p1UYj_0MdR-35" value="" style="rhombus;whiteSpace=wrap;html=1;fillColor=#d5e8d4;strokeColor=#82b366;" vertex="1" parent="1">
          <mxGeometry x="280" y="660" width="20" height="18.46" as="geometry" />
        </mxCell>
        <mxCell id="pH_hnQ0hc6p1UYj_0MdR-54" value="" style="rounded=0;whiteSpace=wrap;html=1;strokeWidth=2;" vertex="1" parent="1">
          <mxGeometry x="318.9" y="619.23" width="30" height="90.77" as="geometry" />
        </mxCell>
        <mxCell id="pH_hnQ0hc6p1UYj_0MdR-38" style="edgeStyle=orthogonalEdgeStyle;rounded=0;orthogonalLoop=1;jettySize=auto;html=1;exitX=1;exitY=0.5;exitDx=0;exitDy=0;entryX=0.016;entryY=0.221;entryDx=0;entryDy=0;entryPerimeter=0;" edge="1" parent="1" source="pH_hnQ0hc6p1UYj_0MdR-35" target="pH_hnQ0hc6p1UYj_0MdR-34">
          <mxGeometry relative="1" as="geometry">
            <Array as="points">
              <mxPoint x="310" y="669" />
              <mxPoint x="310" y="637" />
            </Array>
          </mxGeometry>
        </mxCell>
        <mxCell id="pH_hnQ0hc6p1UYj_0MdR-34" value="" style="sketch=0;aspect=fixed;pointerEvents=1;shadow=0;dashed=0;html=1;strokeColor=#82b366;labelPosition=center;verticalLabelPosition=bottom;verticalAlign=top;align=center;fillColor=#d5e8d4;shape=mxgraph.mscae.enterprise.key_permissions;" vertex="1" parent="1">
          <mxGeometry x="327.79999999999995" y="631.54" width="12.2" height="23.46" as="geometry" />
        </mxCell>
        <mxCell id="pH_hnQ0hc6p1UYj_0MdR-51" style="edgeStyle=orthogonalEdgeStyle;rounded=0;orthogonalLoop=1;jettySize=auto;html=1;entryX=0.041;entryY=0.488;entryDx=0;entryDy=0;entryPerimeter=0;exitX=1.064;exitY=0.216;exitDx=0;exitDy=0;exitPerimeter=0;" edge="1" parent="1" source="pH_hnQ0hc6p1UYj_0MdR-34">
          <mxGeometry relative="1" as="geometry">
            <mxPoint x="350" y="637" as="sourcePoint" />
            <mxPoint x="430.50020000000006" y="636.98848" as="targetPoint" />
          </mxGeometry>
        </mxCell>
        <mxCell id="pH_hnQ0hc6p1UYj_0MdR-37" value="" style="sketch=0;pointerEvents=1;shadow=0;dashed=0;html=1;strokeColor=#82b366;fillColor=#d5e8d4;labelPosition=center;verticalLabelPosition=bottom;verticalAlign=top;outlineConnect=0;align=center;shape=mxgraph.office.security.key_permissions;" vertex="1" parent="1">
          <mxGeometry x="330" y="678.46" width="10" height="20" as="geometry" />
        </mxCell>
        <mxCell id="pH_hnQ0hc6p1UYj_0MdR-39" style="edgeStyle=orthogonalEdgeStyle;rounded=0;orthogonalLoop=1;jettySize=auto;html=1;exitX=1;exitY=0.5;exitDx=0;exitDy=0;" edge="1" parent="1" source="pH_hnQ0hc6p1UYj_0MdR-35" target="pH_hnQ0hc6p1UYj_0MdR-37">
          <mxGeometry relative="1" as="geometry">
            <Array as="points">
              <mxPoint x="310" y="669" />
              <mxPoint x="310" y="689" />
            </Array>
          </mxGeometry>
        </mxCell>
        <mxCell id="pH_hnQ0hc6p1UYj_0MdR-52" style="edgeStyle=orthogonalEdgeStyle;rounded=0;orthogonalLoop=1;jettySize=auto;html=1;entryX=0.041;entryY=0.488;entryDx=0;entryDy=0;entryPerimeter=0;" edge="1" parent="1" source="pH_hnQ0hc6p1UYj_0MdR-37">
          <mxGeometry relative="1" as="geometry">
            <mxPoint x="340" y="688" as="sourcePoint" />
            <mxPoint x="430.00020000000006" y="688.45848" as="targetPoint" />
          </mxGeometry>
        </mxCell>
        <mxCell id="pH_hnQ0hc6p1UYj_0MdR-10" value="" style="rounded=1;whiteSpace=wrap;html=1;strokeColor=#0000FF;strokeWidth=1;" vertex="1" parent="1">
          <mxGeometry x="354" y="600" width="66" height="130" as="geometry" />
        </mxCell>
        <mxCell id="pH_hnQ0hc6p1UYj_0MdR-55" value="" style="sketch=0;aspect=fixed;pointerEvents=1;shadow=0;dashed=0;html=1;strokeColor=#0000FF;labelPosition=center;verticalLabelPosition=bottom;verticalAlign=top;align=center;fillColor=#0000FF;shape=mxgraph.mscae.enterprise.key_permissions;" vertex="1" parent="1">
          <mxGeometry x="380.9" y="631.54" width="12.2" height="23.46" as="geometry" />
        </mxCell>
        <mxCell id="pH_hnQ0hc6p1UYj_0MdR-56" style="edgeStyle=orthogonalEdgeStyle;rounded=0;orthogonalLoop=1;jettySize=auto;html=1;exitX=0.64;exitY=0.5;exitDx=0;exitDy=0;exitPerimeter=0;entryX=-0.041;entryY=0.463;entryDx=0;entryDy=0;entryPerimeter=0;" edge="1" parent="1" source="pH_hnQ0hc6p1UYj_0MdR-34" target="pH_hnQ0hc6p1UYj_0MdR-55">
          <mxGeometry relative="1" as="geometry" />
        </mxCell>
        <mxCell id="pH_hnQ0hc6p1UYj_0MdR-57" style="edgeStyle=orthogonalEdgeStyle;rounded=0;orthogonalLoop=1;jettySize=auto;html=1;entryX=0.28;entryY=0.5;entryDx=0;entryDy=0;entryPerimeter=0;" edge="1" parent="1" source="pH_hnQ0hc6p1UYj_0MdR-55" target="pH_hnQ0hc6p1UYj_0MdR-36">
          <mxGeometry relative="1" as="geometry" />
        </mxCell>
        <mxCell id="pH_hnQ0hc6p1UYj_0MdR-58" value="" style="rounded=0;whiteSpace=wrap;html=1;strokeWidth=2;" vertex="1" parent="1">
          <mxGeometry x="480" y="642.11" width="60" height="17.89" as="geometry" />
        </mxCell>
        <mxCell id="pH_hnQ0hc6p1UYj_0MdR-59" value="" style="rounded=0;whiteSpace=wrap;html=1;" vertex="1" parent="1">
          <mxGeometry x="480" y="704.51" width="60" height="17.89" as="geometry" />
        </mxCell>
        <mxCell id="pH_hnQ0hc6p1UYj_0MdR-60" value="" style="rounded=0;whiteSpace=wrap;html=1;" vertex="1" parent="1">
          <mxGeometry x="460" y="676.46" width="100" height="22" as="geometry" />
        </mxCell>
        <mxCell id="pH_hnQ0hc6p1UYj_0MdR-62" value="" style="sketch=0;aspect=fixed;pointerEvents=1;shadow=0;dashed=0;html=1;strokeColor=#82B366;labelPosition=center;verticalLabelPosition=bottom;verticalAlign=top;align=center;fillColor=#d5e8d4;shape=mxgraph.mscae.enterprise.key_permissions;" vertex="1" parent="1">
          <mxGeometry x="479.99999999999994" y="607.27" width="12.2" height="23.46" as="geometry" />
        </mxCell>
        <mxCell id="pH_hnQ0hc6p1UYj_0MdR-47" value="" style="html=1;verticalLabelPosition=bottom;align=center;labelBackgroundColor=#ffffff;verticalAlign=top;strokeWidth=2;strokeColor=#d6b656;shadow=0;dashed=0;shape=mxgraph.ios7.icons.envelope_(message);fillColor=#fff2cc;" vertex="1" parent="1">
          <mxGeometry x="492.2" y="676.46" width="20" height="20" as="geometry" />
        </mxCell>
        <mxCell id="pH_hnQ0hc6p1UYj_0MdR-63" style="edgeStyle=orthogonalEdgeStyle;rounded=0;orthogonalLoop=1;jettySize=auto;html=1;exitX=1;exitY=0.5;exitDx=0;exitDy=0;entryX=0.014;entryY=0.395;entryDx=0;entryDy=0;entryPerimeter=0;fontSize=15;strokeWidth=1.5;" edge="1" parent="1" source="pH_hnQ0hc6p1UYj_0MdR-58" target="pH_hnQ0hc6p1UYj_0MdR-8">
          <mxGeometry relative="1" as="geometry" />
        </mxCell>
        <mxCell id="pH_hnQ0hc6p1UYj_0MdR-77" value="&lt;b&gt;SIGNING&lt;/b&gt;" style="edgeLabel;html=1;align=center;verticalAlign=middle;resizable=0;points=[];" vertex="1" connectable="0" parent="pH_hnQ0hc6p1UYj_0MdR-63">
          <mxGeometry x="0.1622" y="-1" relative="1" as="geometry">
            <mxPoint x="-10" y="8" as="offset" />
          </mxGeometry>
        </mxCell>
        <mxCell id="pH_hnQ0hc6p1UYj_0MdR-64" style="edgeStyle=orthogonalEdgeStyle;rounded=0;orthogonalLoop=1;jettySize=auto;html=1;entryX=1;entryY=0.75;entryDx=0;entryDy=0;strokeWidth=1.5;" edge="1" parent="1">
          <mxGeometry relative="1" as="geometry">
            <mxPoint x="600" y="694" as="sourcePoint" />
            <mxPoint x="560" y="688.96" as="targetPoint" />
            <Array as="points">
              <mxPoint x="600" y="690" />
              <mxPoint x="590" y="690" />
              <mxPoint x="590" y="689" />
            </Array>
          </mxGeometry>
        </mxCell>
        <mxCell id="pH_hnQ0hc6p1UYj_0MdR-81" value="&lt;b&gt;VAL.&lt;/b&gt;" style="edgeLabel;html=1;align=center;verticalAlign=middle;resizable=0;points=[];" vertex="1" connectable="0" parent="pH_hnQ0hc6p1UYj_0MdR-64">
          <mxGeometry x="0.2023" relative="1" as="geometry">
            <mxPoint y="9" as="offset" />
          </mxGeometry>
        </mxCell>
        <mxCell id="pH_hnQ0hc6p1UYj_0MdR-71" value="INPUT" style="text;html=1;strokeColor=none;fillColor=none;align=center;verticalAlign=middle;whiteSpace=wrap;rounded=0;labelBackgroundColor=default;" vertex="1" parent="1">
          <mxGeometry x="260" y="685" width="60" height="30" as="geometry" />
        </mxCell>
        <mxCell id="pH_hnQ0hc6p1UYj_0MdR-72" value="&lt;b&gt;OUTPUT&lt;/b&gt;" style="text;html=1;strokeColor=none;fillColor=none;align=center;verticalAlign=middle;whiteSpace=wrap;rounded=0;labelBackgroundColor=default;" vertex="1" parent="1">
          <mxGeometry x="305" y="704.51" width="60" height="30" as="geometry" />
        </mxCell>
        <mxCell id="pH_hnQ0hc6p1UYj_0MdR-75" value="&lt;b&gt;OUTPUT&lt;/b&gt;" style="text;html=1;strokeColor=none;fillColor=none;align=center;verticalAlign=middle;whiteSpace=wrap;rounded=0;labelBackgroundColor=default;" vertex="1" parent="1">
          <mxGeometry x="430" y="700" width="60" height="30" as="geometry" />
        </mxCell>
        <mxCell id="pH_hnQ0hc6p1UYj_0MdR-76" value="&lt;b&gt;OUTPUT&lt;/b&gt;" style="text;html=1;strokeColor=none;fillColor=none;align=center;verticalAlign=middle;whiteSpace=wrap;rounded=0;labelBackgroundColor=default;" vertex="1" parent="1">
          <mxGeometry x="432.2" y="646.46" width="60" height="30" as="geometry" />
        </mxCell>
        <mxCell id="pH_hnQ0hc6p1UYj_0MdR-80" value="" style="shape=document;whiteSpace=wrap;html=1;boundedLbl=1;fillColor=#994C00;" vertex="1" parent="1">
          <mxGeometry x="500.55" y="646.06" width="18.9" height="10" as="geometry" />
        </mxCell>
        <mxCell id="pH_hnQ0hc6p1UYj_0MdR-82" value="" style="shape=document;whiteSpace=wrap;html=1;boundedLbl=1;fillColor=#994C00;" vertex="1" parent="1">
          <mxGeometry x="530" y="683.4599999999999" width="18.9" height="10" as="geometry" />
        </mxCell>
        <mxCell id="pH_hnQ0hc6p1UYj_0MdR-83" value="" style="sketch=0;pointerEvents=1;shadow=0;dashed=0;html=1;strokeColor=#82b366;fillColor=#d5e8d4;labelPosition=center;verticalLabelPosition=bottom;verticalAlign=top;outlineConnect=0;align=center;shape=mxgraph.office.security.key_permissions;" vertex="1" parent="1">
          <mxGeometry x="470" y="677.46" width="10" height="20" as="geometry" />
        </mxCell>
        <mxCell id="pH_hnQ0hc6p1UYj_0MdR-84" value="" style="html=1;verticalLabelPosition=bottom;align=center;labelBackgroundColor=#ffffff;verticalAlign=top;strokeWidth=2;strokeColor=#d6b656;shadow=0;dashed=0;shape=mxgraph.ios7.icons.envelope_(message);fillColor=#fff2cc;" vertex="1" parent="1">
          <mxGeometry x="512.2" y="607.27" width="20" height="20" as="geometry" />
        </mxCell>
        <mxCell id="pH_hnQ0hc6p1UYj_0MdR-87" style="edgeStyle=orthogonalEdgeStyle;rounded=0;orthogonalLoop=1;jettySize=auto;html=1;exitX=0.5;exitY=0;exitDx=0;exitDy=0;exitPerimeter=0;entryX=-0.033;entryY=0.236;entryDx=0;entryDy=0;entryPerimeter=0;" edge="1" parent="1" source="pH_hnQ0hc6p1UYj_0MdR-36" target="pH_hnQ0hc6p1UYj_0MdR-62">
          <mxGeometry relative="1" as="geometry">
            <Array as="points">
              <mxPoint x="436" y="613" />
              <mxPoint x="462" y="613" />
            </Array>
          </mxGeometry>
        </mxCell>
        <mxCell id="pH_hnQ0hc6p1UYj_0MdR-88" style="edgeStyle=orthogonalEdgeStyle;rounded=0;orthogonalLoop=1;jettySize=auto;html=1;entryX=0.16;entryY=0.527;entryDx=0;entryDy=0;entryPerimeter=0;" edge="1" parent="1" source="pH_hnQ0hc6p1UYj_0MdR-40" target="pH_hnQ0hc6p1UYj_0MdR-83">
          <mxGeometry relative="1" as="geometry" />
        </mxCell>
        <mxCell id="pH_hnQ0hc6p1UYj_0MdR-89" style="edgeStyle=orthogonalEdgeStyle;rounded=0;orthogonalLoop=1;jettySize=auto;html=1;exitX=1;exitY=0.5;exitDx=0;exitDy=0;entryX=-0.017;entryY=0.632;entryDx=0;entryDy=0;entryPerimeter=0;strokeWidth=2;" edge="1" parent="1" source="pH_hnQ0hc6p1UYj_0MdR-59" target="pH_hnQ0hc6p1UYj_0MdR-96">
          <mxGeometry relative="1" as="geometry" />
        </mxCell>
        <mxCell id="pH_hnQ0hc6p1UYj_0MdR-91" value="&lt;b&gt;CONFIRM&lt;/b&gt;" style="edgeLabel;html=1;align=center;verticalAlign=middle;resizable=0;points=[];" vertex="1" connectable="0" parent="pH_hnQ0hc6p1UYj_0MdR-89">
          <mxGeometry x="0.0631" y="1" relative="1" as="geometry">
            <mxPoint x="-7" y="11" as="offset" />
          </mxGeometry>
        </mxCell>
        <mxCell id="pH_hnQ0hc6p1UYj_0MdR-90" value="&lt;b&gt;{ 1, 0 }&lt;/b&gt;" style="text;html=1;strokeColor=none;fillColor=none;align=center;verticalAlign=middle;whiteSpace=wrap;rounded=0;labelBackgroundColor=default;" vertex="1" parent="1">
          <mxGeometry x="480" y="698.46" width="60" height="30" as="geometry" />
        </mxCell>
        <mxCell id="pH_hnQ0hc6p1UYj_0MdR-92" value="" style="rounded=0;whiteSpace=wrap;html=1;" vertex="1" parent="1">
          <mxGeometry x="615" y="675" width="100" height="50" as="geometry" />
        </mxCell>
        <mxCell id="pH_hnQ0hc6p1UYj_0MdR-93" value="&lt;span style=&quot;font-size: 13px; font-family: Tahoma;&quot;&gt;KEY&amp;nbsp;GENERATION&lt;br&gt;&lt;/span&gt;&lt;span style=&quot;font-size: 13px; font-family: Tahoma;&quot;&gt;ALGORITHM&lt;/span&gt;&lt;span style=&quot;font-size: 13px; font-family: Tahoma;&quot;&gt;&lt;br&gt;&lt;/span&gt;" style="text;html=1;strokeColor=none;fillColor=none;align=center;verticalAlign=middle;whiteSpace=wrap;rounded=0;fontFamily=Verdana;fontStyle=1;labelBorderColor=#82B366;fontColor=#82B366;labelBackgroundColor=default;" vertex="1" parent="1">
          <mxGeometry x="250" y="578" width="130.9" height="30" as="geometry" />
        </mxCell>
        <mxCell id="pH_hnQ0hc6p1UYj_0MdR-94" value="&lt;span style=&quot;font-size: 13px; font-family: Tahoma;&quot;&gt;STORAGE&lt;br&gt;&lt;/span&gt;" style="text;html=1;strokeColor=none;fillColor=none;align=center;verticalAlign=middle;whiteSpace=wrap;rounded=0;fontFamily=Verdana;fontStyle=1;labelBorderColor=#0000FF;fontColor=#0000FF;labelBackgroundColor=default;" vertex="1" parent="1">
          <mxGeometry x="340" y="715" width="100" height="30" as="geometry" />
        </mxCell>
        <mxCell id="pH_hnQ0hc6p1UYj_0MdR-95" value="&lt;span style=&quot;font-size: 13px; font-family: Tahoma;&quot;&gt;&lt;font color=&quot;#994c00&quot;&gt;A&#39;SENDER&lt;/font&gt;&lt;br&gt;&lt;/span&gt;" style="text;html=1;strokeColor=none;fillColor=none;align=center;verticalAlign=middle;whiteSpace=wrap;rounded=0;fontFamily=Verdana;fontStyle=1;labelBorderColor=#0000FF;fontColor=#0000FF;labelBackgroundColor=default;" vertex="1" parent="1">
          <mxGeometry x="615" y="666.46" width="100" height="23.54" as="geometry" />
        </mxCell>
        <mxCell id="pH_hnQ0hc6p1UYj_0MdR-96" value="&lt;span style=&quot;font-size: 13px; font-family: Tahoma;&quot;&gt;&lt;font color=&quot;#cc0000&quot;&gt;A&#39;ATTACKER&lt;/font&gt;&lt;br&gt;&lt;/span&gt;" style="text;html=1;strokeColor=none;fillColor=none;align=center;verticalAlign=middle;whiteSpace=wrap;rounded=0;fontFamily=Verdana;fontStyle=1;labelBorderColor=#0000FF;fontColor=#0000FF;labelBackgroundColor=default;" vertex="1" parent="1">
          <mxGeometry x="615" y="702" width="100" height="18.27" as="geometry" />
        </mxCell>
        <mxCell id="pH_hnQ0hc6p1UYj_0MdR-97" style="edgeStyle=orthogonalEdgeStyle;rounded=0;orthogonalLoop=1;jettySize=auto;html=1;entryX=0.502;entryY=0.438;entryDx=0;entryDy=0;entryPerimeter=0;" edge="1" parent="1">
          <mxGeometry relative="1" as="geometry">
            <mxPoint x="667" y="686" as="sourcePoint" />
            <mxPoint x="667.2" y="706.00226" as="targetPoint" />
          </mxGeometry>
        </mxCell>
        <mxCell id="pH_hnQ0hc6p1UYj_0MdR-99" value="Q" style="text;html=1;strokeColor=none;fillColor=none;align=center;verticalAlign=middle;whiteSpace=wrap;rounded=0;labelBackgroundColor=default;" vertex="1" parent="1">
          <mxGeometry x="625" y="678.46" width="60" height="30" as="geometry" />
        </mxCell>
        <mxCell id="pH_hnQ0hc6p1UYj_0MdR-100" value="P" style="text;html=1;strokeColor=none;fillColor=none;align=center;verticalAlign=middle;whiteSpace=wrap;rounded=0;labelBackgroundColor=default;" vertex="1" parent="1">
          <mxGeometry x="649" y="678.46" width="60" height="30" as="geometry" />
        </mxCell>
        <mxCell id="pH_hnQ0hc6p1UYj_0MdR-101" value="" style="verticalLabelPosition=bottom;html=1;verticalAlign=top;align=center;strokeColor=none;fillColor=#00BEF2;shape=mxgraph.azure.user;" vertex="1" parent="1">
          <mxGeometry x="512.2" y="545" width="20" height="20" as="geometry" />
        </mxCell>
        <mxCell id="pH_hnQ0hc6p1UYj_0MdR-102" style="edgeStyle=orthogonalEdgeStyle;rounded=0;orthogonalLoop=1;jettySize=auto;html=1;exitX=0.5;exitY=1;exitDx=0;exitDy=0;exitPerimeter=0;entryX=0.563;entryY=1.116;entryDx=0;entryDy=0;entryPerimeter=0;" edge="1" parent="1" source="pH_hnQ0hc6p1UYj_0MdR-101" target="pH_hnQ0hc6p1UYj_0MdR-27">
          <mxGeometry relative="1" as="geometry" />
        </mxCell>
        <mxCell id="Ocvt2LaTaO_T-SUnUE06-3" value="" style="verticalLabelPosition=bottom;html=1;verticalAlign=top;align=center;strokeColor=#b85450;fillColor=#f8cecc;shape=mxgraph.azure.user;" vertex="1" parent="1">
          <mxGeometry x="270" y="760" width="30" height="30" as="geometry" />
        </mxCell>
        <mxCell id="Ocvt2LaTaO_T-SUnUE06-4" value="" style="verticalLabelPosition=bottom;html=1;verticalAlign=top;align=center;strokeColor=#b85450;fillColor=#f8cecc;shape=mxgraph.azure.user;" vertex="1" parent="1">
          <mxGeometry x="580" y="545" width="30" height="25" as="geometry" />
        </mxCell>
        <mxCell id="Ocvt2LaTaO_T-SUnUE06-5" value="" style="verticalLabelPosition=bottom;html=1;verticalAlign=top;align=center;strokeColor=#b85450;fillColor=#f8cecc;shape=mxgraph.azure.user;" vertex="1" parent="1">
          <mxGeometry x="410" y="540" width="27" height="30" as="geometry" />
        </mxCell>
        <mxCell id="Ocvt2LaTaO_T-SUnUE06-6" value="" style="verticalLabelPosition=bottom;html=1;verticalAlign=top;align=center;strokeColor=#b85450;fillColor=#f8cecc;shape=mxgraph.azure.user;" vertex="1" parent="1">
          <mxGeometry x="410" y="760" width="30" height="30" as="geometry" />
        </mxCell>
        <mxCell id="Ocvt2LaTaO_T-SUnUE06-8" style="edgeStyle=orthogonalEdgeStyle;rounded=0;orthogonalLoop=1;jettySize=auto;html=1;exitX=0.5;exitY=0;exitDx=0;exitDy=0;exitPerimeter=0;entryX=0;entryY=0.5;entryDx=0;entryDy=0;fillColor=#f8cecc;strokeColor=#b85450;" edge="1" parent="1" source="Ocvt2LaTaO_T-SUnUE06-6" target="pH_hnQ0hc6p1UYj_0MdR-12">
          <mxGeometry relative="1" as="geometry" />
        </mxCell>
        <mxCell id="Ocvt2LaTaO_T-SUnUE06-9" style="edgeStyle=orthogonalEdgeStyle;rounded=0;orthogonalLoop=1;jettySize=auto;html=1;exitX=0.5;exitY=1;exitDx=0;exitDy=0;exitPerimeter=0;entryX=-0.007;entryY=0.187;entryDx=0;entryDy=0;entryPerimeter=0;fillColor=#f8cecc;strokeColor=#b85450;" edge="1" parent="1" source="Ocvt2LaTaO_T-SUnUE06-5" target="pH_hnQ0hc6p1UYj_0MdR-11">
          <mxGeometry relative="1" as="geometry" />
        </mxCell>
        <mxCell id="Ocvt2LaTaO_T-SUnUE06-10" style="edgeStyle=orthogonalEdgeStyle;rounded=0;orthogonalLoop=1;jettySize=auto;html=1;exitX=0.5;exitY=1;exitDx=0;exitDy=0;exitPerimeter=0;entryX=1.018;entryY=0.531;entryDx=0;entryDy=0;entryPerimeter=0;fillColor=#f8cecc;strokeColor=#b85450;" edge="1" parent="1" source="Ocvt2LaTaO_T-SUnUE06-4" target="pH_hnQ0hc6p1UYj_0MdR-84">
          <mxGeometry relative="1" as="geometry" />
        </mxCell>
        <mxCell id="Ocvt2LaTaO_T-SUnUE06-11" style="edgeStyle=orthogonalEdgeStyle;rounded=0;orthogonalLoop=1;jettySize=auto;html=1;exitX=0.5;exitY=0;exitDx=0;exitDy=0;exitPerimeter=0;entryX=-0.001;entryY=0.154;entryDx=0;entryDy=0;entryPerimeter=0;fillColor=#f8cecc;strokeColor=#b85450;" edge="1" parent="1" source="Ocvt2LaTaO_T-SUnUE06-3" target="pH_hnQ0hc6p1UYj_0MdR-9">
          <mxGeometry relative="1" as="geometry" />
        </mxCell>
      </root>
    </mxGraphModel>
  </diagram>
  <diagram id="7Hw_Ies0E090ffAU1LSt" name="Page-3">
    <mxGraphModel dx="81" dy="44" grid="1" gridSize="10" guides="1" tooltips="1" connect="1" arrows="1" fold="1" page="1" pageScale="1" pageWidth="827" pageHeight="1169" math="0" shadow="0">
      <root>
        <mxCell id="0" />
        <mxCell id="1" parent="0" />
        <mxCell id="nzAZH1R9G8syJpjUrHqM-1" value="&lt;span style=&quot;caret-color: rgba(0, 0, 0, 0); color: rgba(0, 0, 0, 0); font-family: monospace; font-size: 0px; font-style: normal; font-variant-caps: normal; font-weight: 400; letter-spacing: normal; text-align: start; text-indent: 0px; text-transform: none; word-spacing: 0px; -webkit-text-stroke-width: 0px; background-color: rgb(251, 251, 251); text-decoration: none; float: none; display: inline !important;&quot;&gt;%3CmxGraphModel%3E%3Croot%3E%3CmxCell%20id%3D%220%22%2F%3E%3CmxCell%20id%3D%221%22%20parent%3D%220%22%2F%3E%3CmxCell%20id%3D%222%22%20value%3D%22%22%20style%3D%22rounded%3D1%3BwhiteSpace%3Dwrap%3Bhtml%3D1%3BstrokeColor%3D%23994C00%3B%22%20vertex%3D%221%22%20parent%3D%221%22%3E%3CmxGeometry%20x%3D%22600%22%20y%3D%22600%22%20width%3D%22130%22%20height%3D%22130%22%20as%3D%22geometry%22%2F%3E%3C%2FmxCell%3E&lt;/span&gt;" style="text;whiteSpace=wrap;html=1;" vertex="1" parent="1">
          <mxGeometry x="270" y="510" width="30" height="40" as="geometry" />
        </mxCell>
      </root>
    </mxGraphModel>
  </diagram>
</mxfile>
